<svg version="1" xmlns="http://www.w3.org/2000/svg" width="1045.333" height="1045.333" viewBox="0 0 784.000000 784.000000"><path d="M2.5 79.6L0 82.1v240.5C0 484.6.3 563.8 1 565c2.2 4.1 4 4.3 41.7 4.2 20 0 36.3.3 36.4.7 0 .3.2 31.6.2 69.4.2 73.8 0 70.6 5 70.7 1.1 0 29.6-27.8 72-70.2l70.2-70.3 41.8-.2c23-.1 43.5-.4 45.7-.7l3.8-.5.1 4.7c.1 2.6.1 5.6.1 6.7.2 4.7.1 40.2 0 42-.1 1.1-.1 2.6-.1 3.2.1 2 .2 3.8.2 10.8v8.2c.1 10 0 40.3-.1 41.8-.1 1.1-.1 2.6-.1 3.2.2 2.5.2 3.9.1 9.8-.1 3.3-.1 6.5-.1 7.2.1 1.8 3 4.3 5 4.3 1.1 0 31-29.2 72.2-70.4l70.4-70.3 41-.2c41.2-.1 49-.3 55.5-1.5 3.4-.6 9.1-1.4 14-2.1 6.6-1 9.2-1.5 15.1-3 19.8-5 35.3-10.7 53.1-19.6 32.6-16.2 63.6-41.8 84.6-69.9 3.1-4.1 5.9-7.7 6.2-8 .7-.6 7.5-11.4 12.3-19.5 7-11.9 18.7-38.3 20.2-45.7.2-.9.9-2.6 1.5-3.7.6-1.2.8-2.1.5-2.1-.3 0-.2-.8.4-1.8 1-1.8 5.9-23.2 6.7-29.1 2.6-18.6 3.1-26.8 2.9-43.6-.3-17.7-1.1-26.5-3.9-42-1.1-5.6-1.7-9.5-1.6-9.7.1-.2-.4-1.7-1-3.3-.7-1.7-1.4-4.1-1.7-5.5-.8-4.5-7.2-23.1-11-31.9-7.9-18.6-19.8-38.8-32.7-55.5-9.2-12.1-32.7-35.1-44.6-43.8-5.8-4.3-11.3-8.4-12.2-9.3-1-.8-2-1.5-2.3-1.5-.2 0-2.8-1.5-5.7-3.3-7.7-4.9-24.6-13.7-26.3-13.7-.8 0-1.5-.5-1.5-1 0-.6-.5-1-1.1-1-.6 0-2.5-.6-4.2-1.4-10.7-4.8-35.2-12.5-44.4-13.9-1.7-.3-3.5-.7-4-1-.4-.3-3-.8-5.8-1.1-2.7-.3-6.1-.8-7.5-1-1.4-.3-5.4-.8-9-1.2-3.6-.4-129.7-.9-280.3-1L5 77.1l-2.5 2.5z"/></svg>