<svg xmlns="http://www.w3.org/2000/svg" xmlns:xlink="http://www.w3.org/1999/xlink" width="180" height="68" viewBox="0 0 180 68">
  <defs>
    <path id="itvsh-logo-a" d="M1600 0v500H0V282z"/>
    <path id="itvsh-logo-c" d="M0 66.4138h179.9308V.0074H0z"/>
  </defs>
  <g fill="none" fill-rule="evenodd" transform="translate(-210 -332)">
    <mask id="itvsh-logo-b" fill="#fff">
      <use xlink:href="#itvsh-logo-a"/>
    </mask>
    <path fill="#FFF" d="M272.9913 362.5444h5.2399v-29.4439h-5.2399zm17.6741-24.8694h-9.0246v-4.5745h23.2889v4.5745h-9.0245v24.8692h-5.2398zm16.509-4.5746h5.864l8.109 22.6648h.1666l8.1925-22.6648h5.656l-11.8108 29.444h-4.5329z"/>
    <g transform="translate(210 332.303)">
      <path fill="#FFF" d="M126.659 24.0864c1.7885 0 3.3272 1.3724 3.3272 3.1606 0 1.7885-1.4974 3.2437-3.3272 3.2437-1.7466 0-3.327-1.3723-3.327-3.1602 0-1.7889 1.4972-3.244 3.327-3.244m23.288-19.0472c-1.622-1.9545-3.6596-2.9939-6.4875-2.9939-3.1605 0-6.8204 1.913-6.8204 5.9468 0 8.5668 15.4706 4.1587 15.4706 14.7216 0 5.656-4.6995 8.3175-9.3987 8.3175-3.8263 0-6.7786-1.5387-8.8995-4.2418l1.6631-1.4555c2.121 2.4952 4.3666 3.618 7.2364 3.618 3.452 0 6.9864-2.1209 6.9864-6.1132 0-8.6502-15.4288-4.3668-15.4288-14.8466 0-5.448 4.824-7.9848 9.3157-7.9848 3.8675 0 6.5709 1.5387 8.0677 3.4932l-1.705 1.5387zm8.0671-4.2418h2.3707v13.0584h17.1751V.7975h2.3708v29.444h-2.3708V16.06h-17.1751v14.1815h-2.3707zM64.1302 45.2082h.0236l3.7518-3.7043h1.6262l-4.0838 3.8468 4.3333 4.5586h-1.6861l-3.9414-4.3451h-.0236v4.3451H62.955v-8.4054h1.1752zm8.8912-.1542c-1.1988 0-1.8757.9617-1.8757 2.0299 0 1.0685.6769 2.042 1.8757 2.042 1.211 0 1.8758-.9735 1.8758-2.042 0-1.0682-.6648-2.03-1.8758-2.03m0 5.01c-1.7214 0-3.0274-1.2467-3.0274-2.98s1.306-2.956 3.0274-2.956c1.7215 0 3.0392 1.2227 3.0392 2.956s-1.3177 2.98-3.0392 2.98m7.4665-5.9361c.748 0 1.4012.3324 1.7454 1.128.3798-.7243 1.116-1.128 1.911-1.128 1.4485 0 2.1017 1.0328 2.1017 2.2913v3.4904H85.13v-3.1224c0-.914-.273-1.7215-1.2466-1.7215-1.021 0-1.4245.9261-1.4245 1.8047v3.0392h-1.116v-3.3477c0-.8786-.2967-1.4962-1.187-1.4962-.8194 0-1.4367.7365-1.4367 1.8522v2.9917h-1.116V45.493c0-.2967-.012-.8426-.0474-1.2107h1.0564c.0239.285.0475.6884.0475.9258h.0356c.2853-.5937.938-1.0803 1.7926-1.0803m10.5293 0c.748 0 1.4009.3324 1.745 1.128.3802-.7243 1.116-1.128 1.9115-1.128 1.4483 0 2.1013 1.0328 2.1013 2.2913v3.4904h-1.116v-3.1224c0-.914-.273-1.7215-1.2466-1.7215-1.021 0-1.4245.9261-1.4245 1.8047v3.0392h-1.116v-3.3477c0-.8786-.2967-1.4962-1.187-1.4962-.8194 0-1.4367.7365-1.4367 1.8522v2.9917h-1.116V45.493c0-.2967-.0118-.8426-.0475-1.2107h1.0568c.0235.285.0471.6884.0471.9258h.036c.285-.5937.9379-1.0803 1.7926-1.0803m11.6097 5.7816c-.0239-.2849-.0474-.6886-.0474-.9257h-.0236c-.2852.5934-1.0214 1.08-1.8404 1.08-1.4484 0-2.1016-1.0328-2.1016-2.2913v-3.4901h1.1163v3.1106c0 .9257.2492 1.7332 1.282 1.7332.8904 0 1.5077-.7361 1.5077-1.8521v-2.9917h1.116v4.4162c0 .297.0118.8429.0475 1.211h-1.0565zm3.9524-5.627c.0236.2848.0472.6883.0472.9257h.036c.2728-.6055 1.021-1.0803 1.828-1.0803 1.4483 0 2.1016 1.0328 2.1016 2.2913v3.4904h-1.1163v-3.1224c0-.914-.2493-1.7215-1.282-1.7215-.8787 0-1.5077.7362-1.5077 1.8522v2.9917h-1.116V45.493c0-.2967-.0118-.8426-.0475-1.2107h1.0567zm9.1285 2.944c-1.1042 0-2.5051.1188-2.5051 1.0685 0 .6647.5937.8782 1.1517.8782 1.0446 0 1.6265-.7 1.6265-1.65v-.2967h-.2731zm.273-.9618c0-.8308-.558-1.2346-1.389-1.2346-.6294 0-1.2228.2731-1.603.653l-.5933-.7125c.5462-.522 1.389-.8426 2.303-.8426 1.6145 0 2.3506.9614 2.3506 2.208v2.4577c0 .3795.0236.8429.0832 1.116h-1.009a3.6506 3.6506 0 0 1-.0952-.8075h-.0354c-.4038.6055-1.0446.9496-1.8878.9496-.8901 0-2.0418-.4391-2.0418-1.733 0-1.6978 2.0182-1.8999 3.9178-1.8999v-.1542z"/>
      <mask id="itvsh-logo-d" fill="#fff">
        <use xlink:href="#itvsh-logo-c"/>
      </mask>
      <path fill="#FFF" d="M118.9359 49.9093h1.116v-8.9751h-1.116zm7.1824-3.3121c-.0239-.8904-.5462-1.5908-1.579-1.5908-.9618 0-1.698.7122-1.769 1.5908h3.348zm1.116.831h-4.464c.0357.9615.8429 1.7098 1.8286 1.7098.7597 0 1.3177-.3802 1.638-.855l.7836.6294c-.6055.7833-1.4248 1.1513-2.4216 1.1513-1.7097 0-2.9682-1.187-2.9682-2.956 0-1.7572 1.2585-2.98 2.9086-2.98 1.6622 0 2.7068 1.1282 2.7068 2.9207 0 .1186 0 .2492-.0118.3799zm-63.104 15.1036h1.472c2.0302 0 3.514-1.1635 3.514-3.17 0-2.0774-1.4838-3.1816-3.514-3.1816h-1.472v6.3516zm-1.1753-7.3726h2.885c2.1488 0 4.5347 1.223 4.5347 4.2027 0 2.8732-2.386 4.2027-4.5348 4.2027h-2.885v-8.4054zm8.986 8.4053h1.116v-5.6272h-1.116v5.6272zm.558-6.9452c-.4037 0-.7361-.3203-.7361-.712 0-.4037.3324-.7243.7361-.7243.4038 0 .748.3088.748.7244 0 .4034-.3442.712-.748.712zm5.1519 6.0549c1.1516 0 1.9114-.8665 1.9114-1.9828 0-1.0682-.7719-1.9822-1.9114-1.9822-1.1753 0-1.864.9022-1.864 1.9822 0 1.0328.6887 1.9828 1.864 1.9828zm-2.2082 1.8521c.4867.5462 1.2824.914 2.054.914 1.4837 0 1.9824-.914 1.9824-2.0774v-.724h-.0239c-.4152.629-1.187.9732-1.9825.9732-1.7215 0-2.8375-1.282-2.8375-2.8968 0-1.6147 1.1042-2.9324 2.8257-2.9324.8072 0 1.6026.3562 2.0303 1.057h.0236v-.9025h1.0803v5.3423c0 1.6383-.7718 3.1342-3.1103 3.1342-.9738 0-2.0538-.38-2.7543-1.021l.7122-.8666zm7.0746-.9618h1.116v-5.6272h-1.116v5.6272zm.558-6.9452c-.4035 0-.7359-.3203-.7359-.712 0-.4037.3324-.7243.7359-.7243.4037 0 .748.3088.748.7244 0 .4034-.3443.712-.748.712zm5.2588 2.2323h-1.4959v2.9321c0 .6769.2375.95.7955.95.202 0 .463-.0478.653-.1425l.0356.914c-.2613.0953-.6055.1542-.95.1542-1.0564 0-1.6383-.5934-1.6383-1.7568v-3.051h-1.08v-.914h1.08v-1.6147h1.1042v1.6147h1.4959v.914zm4.3803 2.03c-1.1042 0-2.5048.1188-2.5048 1.0684 0 .6648.5934.8783 1.1514.8783 1.0446 0 1.6265-.7001 1.6265-1.65v-.2968h-.2731zm.2731-.9618c0-.8308-.558-1.2346-1.3891-1.2346-.629 0-1.2228.2731-1.6026.653l-.5937-.7126c.5462-.522 1.389-.8426 2.303-.8426 1.6148 0 2.3506.9615 2.3506 2.2081v2.4577c0 .3795.024.8429.0835 1.116H93.13a3.6504 3.6504 0 0 1-.095-.8076h-.0357c-.4038.6055-1.0446.9497-1.8875.9497-.8904 0-2.042-.4391-2.042-1.733 0-1.6979 2.018-1.8999 3.9177-1.8999v-.1542zm2.9553 3.6447h1.116v-8.9752h-1.116zm3.0746 0h1.116v-5.6272h-1.116v5.6272zm.558-6.9452c-.4038 0-.7362-.3203-.7362-.712 0-.4037.3324-.7243.7362-.7243.4037 0 .748.3088.748.7244 0 .4034-.3443.712-.748.712zm5.5437 2.7426c-.2495-.4037-.7361-.7004-1.306-.7004-.5108 0-1.0446.202-1.0446.7361 0 .4751.4274.653 1.282.843 1.0686.2373 1.888.6768 1.888 1.6621 0 1.3295-1.1043 1.8162-2.2442 1.8162-.8547 0-1.7333-.3324-2.2674-1.009l.7954-.6768c.2967.4391.8665.7836 1.4956.7836.558 0 1.1163-.202 1.1163-.8193 0-.522-.5105-.7123-1.4723-.9376-.7479-.1784-1.638-.4987-1.638-1.5554 0-1.2107 1.0564-1.7215 2.1246-1.7215.7958 0 1.6387.3206 2.0421.926l-.7715.653zm2.2428 4.2026h1.116v-5.6272h-1.116v5.6272zm.558-6.9452c-.4034 0-.7361-.3203-.7361-.712 0-.4037.3327-.7243.7361-.7243.4038 0 .748.3088.748.7244 0 .4034-.3442.712-.748.712zm6.6244 3.633c-.0239-.8903-.5462-1.5908-1.579-1.5908-.9618 0-1.698.7123-1.769 1.5909h3.348zm1.116.8312h-4.464c.0357.9614.8429 1.7097 1.8286 1.7097.7597 0 1.3177-.3802 1.638-.855l.7836.6293c-.6055.7833-1.4248 1.1514-2.4216 1.1514-1.7097 0-2.9682-1.187-2.9682-2.956 0-1.7572 1.2585-2.98 2.9086-2.98 1.6622 0 2.7068 1.1282 2.7068 2.9207 0 .1186 0 .2492-.0118.3799zm1.5186-3.146h1.0567c.0236.2849.0475.7122.0475.9497h.0357c.3085-.653.9615-1.1043 1.7215-1.1043.1542 0 .3085.0118.4391.0475l-.0478 1.0329c-.1424-.0357-.332-.0593-.5102-.0593-1.0685 0-1.579.8668-1.579 1.8043v2.9564h-1.116v-4.4165c0-.2967-.0118-.8426-.0475-1.2107m8.3099 5.6271c-.0236-.2849-.0472-.6886-.0472-.9257h-.0239c-.2849.5933-1.021 1.08-1.84 1.08-1.4484 0-2.1017-1.0329-2.1017-2.2913v-3.4902h1.116v3.1106c0 .9258.2496 1.7333 1.2824 1.7333.8904 0 1.5076-.7361 1.5076-1.8521v-2.9918h1.116v4.4162c0 .297.0118.843.0475 1.211h-1.0567zm3.9527-5.6271c.0236.2849.0471.6883.0471.9258h.036c.2728-.6055 1.021-1.0804 1.828-1.0804 1.4484 0 2.1016 1.0329 2.1016 2.2913v3.4905h-1.1163v-3.1224c0-.914-.2492-1.7215-1.282-1.7215-.8786 0-1.5077.7361-1.5077 1.8521v2.9918h-1.116v-4.4165c0-.2967-.0118-.8426-.0474-1.2107h1.0567zm8.5466 4.7367c1.1517 0 1.9114-.8665 1.9114-1.9828 0-1.0682-.7715-1.9822-1.9114-1.9822-1.1753 0-1.864.9022-1.864 1.9822 0 1.0328.6887 1.9828 1.864 1.9828zm-2.2081 1.8521c.4866.5462 1.2823.914 2.0538.914 1.484 0 1.9828-.914 1.9828-2.0774v-.724h-.0242c-.4152.629-1.187.9732-1.9822.9732-1.7214 0-2.8374-1.282-2.8374-2.8968 0-1.6147 1.1042-2.9324 2.8256-2.9324.807 0 1.6027.3562 2.03 1.057h.0236v-.9025h1.0803v5.3423c0 1.6383-.7715 3.1342-3.1103 3.1342-.9735 0-2.0538-.38-2.7543-1.021l.7123-.8666z" mask="url(#itvsh-logo-d)"/>
    </g>
    <path fill="#3A78B8" d="M223.9382 333.1213c2.3524 0 2.3561-.0012 2.3601-.0012h-15.8536a.4442.4442 0 0 0-.4447.4444v28.458c0 .2455.1986.4447.4447.4447h4.2865v8.1252c0 .2501.3026.3755.4798.1983l8.324-8.3235h2.7633c-.004 0-.0077-.0015-2.3601-.0015v-29.3444z"/>
    <path fill="#D62F87" d="M241.8401 333.12h-14.2318c8.104 0 14.6731 6.5697 14.6731 14.673 0 8.1047-6.569 14.6741-14.673 14.6741l1.3552-.8128v8.938c0 .2504.3026.3755.4792.1986l8.324-8.3238h4.0733c8.1044 0 14.6738-6.5694 14.6738-14.674 0-8.1034-6.5694-14.6731-14.6739-14.6731"/>
    <path fill="#FFF" d="M242.2816 347.7933c0-8.104-6.5697-14.673-14.6731-14.673 0 0-1.318.0009-4.0929.0009v29.3443c2.7748 0 4.0929.0015 4.0929.0015 8.1034 0 14.673-6.5693 14.673-14.6737"/>
  </g>
</svg>
