<svg xmlns="http://www.w3.org/2000/svg" width="49" height="40" viewBox="0 0 49 40">
  <g fill="none" fill-rule="evenodd">
    <path fill="#D9328A" d="M33.3646.3252H18.4514c8.492 0 15.3756 6.8842 15.3756 15.3756 0 8.4927-6.8836 15.3766-15.3756 15.3766l1.4201-.8517v9.3658c0 .2625.3171.3935.5022.2082l8.7226-8.7223h4.2683c8.4923 0 15.3762-6.8839 15.3762-15.3766 0-8.4914-6.8839-15.3756-15.3762-15.3756"/>
    <path fill="#001F47" d="M33.8271 15.701c0-8.492-6.8842-15.3755-15.3756-15.3755 0 0-1.3811.001-4.2888.001v30.7492c2.9077 0 4.2888.0016 4.2888.0016 8.4914 0 15.3756-6.8839 15.3756-15.3762"/>
    <path fill="#3E77BC" d="M14.6055.3266c2.465 0 2.469-.0013 2.4732-.0013H.466A.4655.4655 0 0 0 0 .791v29.8205c0 .2572.2081.466.466.466h4.4917v8.5142c0 .262.317.3935.5028.2078l8.7226-8.722h2.8956c-.0043 0-.0082-.0016-2.4732-.0016V.3266z"/>
  </g>
</svg>
