<svg xmlns="http://www.w3.org/2000/svg" xmlns:xlink="http://www.w3.org/1999/xlink" width="437" height="40" viewBox="0 0 437 40">
  <defs>
    <path id="logo-b" d="M0 0h1600v185H0z"/>
    <filter id="logo-a" width="101.1%" height="109.2%" x="-.5%" y="-3.5%" filterUnits="objectBoundingBox">
      <feOffset dy="2" in="SourceAlpha" result="shadowOffsetOuter1"/>
      <feGaussianBlur in="shadowOffsetOuter1" result="shadowBlurOuter1" stdDeviation="2.5"/>
      <feColorMatrix in="shadowBlurOuter1" values="0 0 0 0 0 0 0 0 0 0 0 0 0 0 0 0 0 0 0.25 0"/>
    </filter>
    <path id="logo-c" d="M.0529.0074h18.2982v31.0239H.0529z"/>
    <path id="logo-e" d="M0 66.4138h179.9308V.0074H0z"/>
  </defs>
  <g fill="none" fill-rule="evenodd" transform="translate(-210 -50)">
    <use fill="#000" filter="url(#logo-a)" xlink:href="#logo-b"/>
    <use fill="#FFF" xlink:href="#logo-b"/>
    <path fill="#001F47" d="M272.9913 80.5444h5.2399V51.1005h-5.2399zm17.6741-24.8694h-9.0246v-4.5745h23.2889v4.5745h-9.0245v24.8692h-5.2398zm16.509-4.5746h5.864l8.109 22.6648h.1666l8.1925-22.6648h5.656l-11.8108 29.444h-4.5329z"/>
    <g transform="translate(210 50.303)">
      <path fill="#001F47" d="M126.659 24.0864c1.7885 0 3.3272 1.3724 3.3272 3.1606 0 1.7885-1.4974 3.2437-3.3272 3.2437-1.7466 0-3.327-1.3723-3.327-3.1602 0-1.7889 1.4972-3.244 3.327-3.244"/>
      <g transform="translate(133.759)">
        <mask id="logo-d" fill="#fff">
          <use xlink:href="#logo-c"/>
        </mask>
        <path fill="#001F47" d="M16.1883 5.0393c-1.6218-1.9545-3.6596-2.9939-6.4874-2.9939-3.1606 0-6.8205 1.913-6.8205 5.9468 0 8.5668 15.4707 4.1587 15.4707 14.7216 0 5.656-4.6995 8.3175-9.3988 8.3175-3.8262 0-6.7785-1.5387-8.8994-4.2418L1.716 25.334c2.121 2.4952 4.3666 3.618 7.2363 3.618 3.452 0 6.9865-2.1209 6.9865-6.1132C15.9388 14.1886.51 18.472.51 7.9922.51 2.5442 5.334.0074 9.8256.0074c3.8676 0 6.571 1.5387 8.0678 3.4932l-1.705 1.5387z" mask="url(#logo-d)"/>
      </g>
      <path fill="#001F47" d="M158.0141.7975h2.3707v13.0584h17.1751V.7975h2.3708v29.444h-2.3708V16.06h-17.1751v14.1815h-2.3707z"/>
      <mask id="logo-f" fill="#fff">
        <use xlink:href="#logo-e"/>
      </mask>
      <path fill="#3E77BC" d="M13.9382.8184c2.3524 0 2.3561-.0012 2.3601-.0012H.4447A.4442.4442 0 0 0 0 1.2616v28.458c0 .2455.1986.4447.4447.4447h4.2865v8.1252c0 .2501.3026.3755.4798.1983l8.324-8.3235h2.7633c-.004 0-.0077-.0015-2.3601-.0015V.8184z" mask="url(#logo-f)"/>
      <path fill="#D9328A" d="M31.8401.817H17.6083c8.104 0 14.6731 6.5698 14.6731 14.6732 0 8.1046-6.569 14.674-14.673 14.674l1.3552-.8128v8.938c0 .2504.3026.3755.4792.1986l8.324-8.3238h4.0733c8.1044 0 14.6738-6.5694 14.6738-14.674C46.5139 7.3868 39.9445.817 31.84.817" mask="url(#logo-f)"/>
      <path fill="#001F47" d="M32.2816 15.4904c0-8.104-6.5697-14.673-14.6731-14.673 0 0-1.318.0009-4.0929.0009v29.3443c2.7748 0 4.0929.0016 4.0929.0016 8.1034 0 14.673-6.5694 14.673-14.6738" mask="url(#logo-f)"/>
    </g>
    <path fill="#FFF" d="M262 30h232v59H262z"/>
    <path fill="#001F47" fill-rule="nonzero" d="M283.16 79c1.84 0 3.6933-.2733 5.56-.82 1.8667-.5467 3.5467-1.3933 5.04-2.54s2.7067-2.6133 3.64-4.4c.9333-1.7867 1.4-3.92 1.4-6.4 0-2.6667-.4667-4.9-1.4-6.7-.9333-1.8-2.1467-3.2533-3.64-4.36-1.4933-1.1067-3.1733-1.9-5.04-2.38-1.8667-.48-3.72-.72-5.56-.72h-10.04V79h10.04zm-.8-4.4h-4.2V55h4.2c1.3067 0 2.6133.1333 3.92.4 1.3067.2667 2.4867.76 3.54 1.48 1.0533.72 1.9133 1.72 2.58 3 .6667 1.28 1 2.9333 1 4.96 0 1.92-.3333 3.5067-1 4.76-.6667 1.2533-1.5267 2.2467-2.58 2.98-1.0533.7333-2.2333 1.2533-3.54 1.56-1.3067.3067-2.6133.46-3.92.46zm40.8 4.4v-4.48h-14.44v-8h13v-4.24h-13v-7.2h13.72v-4.4h-18.76V79h19.48zm12.52.72c1.3867 0 2.7067-.1867 3.96-.56 1.2533-.3733 2.3467-.9333 3.28-1.68.9333-.7467 1.68-1.6867 2.24-2.82.56-1.1333.84-2.46.84-3.98 0-1.3867-.26-2.5467-.78-3.48s-1.1867-1.7067-2-2.32c-.8133-.6133-1.7067-1.1067-2.68-1.48-.9733-.3733-1.9133-.7067-2.82-1-.8-.24-1.5333-.48-2.2-.72-.6667-.24-1.2333-.52-1.7-.84-.4667-.32-.8333-.7067-1.1-1.16-.2667-.4533-.4-1-.4-1.64 0-.6933.1533-1.2867.46-1.78.3067-.4933.7-.8933 1.18-1.2s1.0133-.5333 1.6-.68c.5867-.1467 1.1733-.22 1.76-.22.9867 0 1.9667.2333 2.94.7.9733.4667 1.7267 1.0467 2.26 1.74l3.28-3.6c-1.0933-1.0133-2.38-1.7733-3.86-2.28-1.48-.5067-2.94-.76-4.38-.76-1.28 0-2.54.1667-3.78.5-1.24.3333-2.3467.84-3.32 1.52s-1.76 1.54-2.36 2.58c-.6 1.04-.9 2.28-.9 3.72 0 1.3333.2133 2.4467.64 3.34s.98 1.6467 1.66 2.26c.68.6133 1.4467 1.1067 2.3 1.48.8533.3733 1.7067.6933 2.56.96l2.52.84c.8.2667 1.4933.58 2.08.94s1.0533.7867 1.4 1.28c.3467.4933.52 1.1133.52 1.86 0 .7733-.1533 1.42-.46 1.94a4.1436 4.1436 0 0 1-1.2 1.3c-.4933.3467-1.0467.5933-1.66.74-.6133.1467-1.2133.22-1.8.22-1.12 0-2.26-.28-3.42-.84-1.16-.56-2.0867-1.32-2.78-2.28l-3.6 3.36c1.12 1.3333 2.56 2.34 4.32 3.02 1.76.68 3.56 1.02 5.4 1.02zm20.4-.72V50.68h-5.04V79h5.04zm20.36.72c2.24 0 4.22-.1933 5.94-.58 1.72-.3867 3.3-.9267 4.74-1.62V62.84h-10.84V67h5.96v7.2c-1.6.6667-3.48 1-5.64 1-1.5733 0-2.98-.26-4.22-.78-1.24-.52-2.2933-1.2467-3.16-2.18-.8667-.9333-1.5333-2.0333-2-3.3-.4667-1.2667-.7-2.66-.7-4.18 0-1.4667.2333-2.8267.7-4.08.4667-1.2533 1.1267-2.3467 1.98-3.28s1.8867-1.6667 3.1-2.2c1.2133-.5333 2.5667-.8 4.06-.8 1.52 0 2.9267.28 4.22.84 1.2933.56 2.3 1.24 3.02 2.04l3.48-3.76c-1.1467-1.0667-2.66-1.9267-4.54-2.58s-3.9533-.98-6.22-.98c-2.1867 0-4.2133.3467-6.08 1.04-1.8667.6933-3.4867 1.68-4.86 2.96-1.3733 1.28-2.4533 2.8333-3.24 4.66-.7867 1.8267-1.18 3.8733-1.18 6.14 0 2.2133.38 4.2333 1.14 6.06.76 1.8267 1.82 3.4 3.18 4.72 1.36 1.32 2.9867 2.3467 4.88 3.08 1.8933.7333 3.9867 1.1 6.28 1.1zm21.84-.72V57.12h.08L411.8 79h6.4V50.68h-5.04v21.2h-.08l-13.16-21.2h-6.68V79h5.04zm34.24-7.8v-4.08h-9.6v4.08h9.6zm11.84 8.52c1.3867 0 2.7067-.1867 3.96-.56 1.2533-.3733 2.3467-.9333 3.28-1.68.9333-.7467 1.68-1.6867 2.24-2.82.56-1.1333.84-2.46.84-3.98 0-1.3867-.26-2.5467-.78-3.48s-1.1867-1.7067-2-2.32c-.8133-.6133-1.7067-1.1067-2.68-1.48-.9733-.3733-1.9133-.7067-2.82-1-.8-.24-1.5333-.48-2.2-.72-.6667-.24-1.2333-.52-1.7-.84-.4667-.32-.8333-.7067-1.1-1.16-.2667-.4533-.4-1-.4-1.64 0-.6933.1533-1.2867.46-1.78.3067-.4933.7-.8933 1.18-1.2s1.0133-.5333 1.6-.68c.5867-.1467 1.1733-.22 1.76-.22.9867 0 1.9667.2333 2.94.7.9733.4667 1.7267 1.0467 2.26 1.74l3.28-3.6c-1.0933-1.0133-2.38-1.7733-3.86-2.28-1.48-.5067-2.94-.76-4.38-.76-1.28 0-2.54.1667-3.78.5-1.24.3333-2.3467.84-3.32 1.52s-1.76 1.54-2.36 2.58c-.6 1.04-.9 2.28-.9 3.72 0 1.3333.2133 2.4467.64 3.34s.98 1.6467 1.66 2.26c.68.6133 1.4467 1.1067 2.3 1.48.8533.3733 1.7067.6933 2.56.96l2.52.84c.8.2667 1.4933.58 2.08.94s1.0533.7867 1.4 1.28c.3467.4933.52 1.1133.52 1.86 0 .7733-.1533 1.42-.46 1.94a4.1436 4.1436 0 0 1-1.2 1.3c-.4933.3467-1.0467.5933-1.66.74-.6133.1467-1.2133.22-1.8.22-1.12 0-2.26-.28-3.42-.84-1.16-.56-2.0867-1.32-2.78-2.28l-3.6 3.36c1.12 1.3333 2.56 2.34 4.32 3.02 1.76.68 3.56 1.02 5.4 1.02zm26.4-.72V66.72l10.64-16.04h-5.84l-7.2 11.92-7.12-11.92h-6.16l10.64 16.04V79h5.04zm20.6.72c1.3867 0 2.7067-.1867 3.96-.56 1.2533-.3733 2.3467-.9333 3.28-1.68.9333-.7467 1.68-1.6867 2.24-2.82.56-1.1333.84-2.46.84-3.98 0-1.3867-.26-2.5467-.78-3.48s-1.1867-1.7067-2-2.32c-.8133-.6133-1.7067-1.1067-2.68-1.48-.9733-.3733-1.9133-.7067-2.82-1-.8-.24-1.5333-.48-2.2-.72-.6667-.24-1.2333-.52-1.7-.84-.4667-.32-.8333-.7067-1.1-1.16-.2667-.4533-.4-1-.4-1.64 0-.6933.1533-1.2867.46-1.78.3067-.4933.7-.8933 1.18-1.2s1.0133-.5333 1.6-.68c.5867-.1467 1.1733-.22 1.76-.22.9867 0 1.9667.2333 2.94.7.9733.4667 1.7267 1.0467 2.26 1.74l3.28-3.6c-1.0933-1.0133-2.38-1.7733-3.86-2.28-1.48-.5067-2.94-.76-4.38-.76-1.28 0-2.54.1667-3.78.5-1.24.3333-2.3467.84-3.32 1.52s-1.76 1.54-2.36 2.58c-.6 1.04-.9 2.28-.9 3.72 0 1.3333.2133 2.4467.64 3.34s.98 1.6467 1.66 2.26c.68.6133 1.4467 1.1067 2.3 1.48.8533.3733 1.7067.6933 2.56.96l2.52.84c.8.2667 1.4933.58 2.08.94s1.0533.7867 1.4 1.28c.3467.4933.52 1.1133.52 1.86 0 .7733-.1533 1.42-.46 1.94a4.1436 4.1436 0 0 1-1.2 1.3c-.4933.3467-1.0467.5933-1.66.74-.6133.1467-1.2133.22-1.8.22-1.12 0-2.26-.28-3.42-.84-1.16-.56-2.0867-1.32-2.78-2.28l-3.6 3.36c1.12 1.3333 2.56 2.34 4.32 3.02 1.76.68 3.56 1.02 5.4 1.02zm25.48-.72V55.08h8.68v-4.4h-22.4v4.4h8.68V79h5.04zm31.44 0v-4.48h-14.44v-8h13v-4.24h-13v-7.2h13.72v-4.4H528.8V79h19.48zm9.72 0V56.24h.08L566.56 79h3.52l8.6-22.76h.08V79h5V50.68h-7.92l-7.28 20.12h-.12l-7.36-20.12h-7.88V79h4.8zm34.08.24c.88 0 1.6333-.3067 2.26-.92.6267-.6133.94-1.3467.94-2.2 0-.8533-.32-1.5733-.96-2.16-.64-.5867-1.3867-.88-2.24-.88-.88 0-1.6333.3067-2.26.92-.6267.6133-.94 1.3467-.94 2.2 0 .4267.0867.8267.26 1.2.1733.3733.4067.6933.7.96.2933.2667.6333.48 1.02.64.3867.16.7933.24 1.22.24zm15.92.48c1.3867 0 2.7067-.1867 3.96-.56 1.2533-.3733 2.3467-.9333 3.28-1.68.9333-.7467 1.68-1.6867 2.24-2.82.56-1.1333.84-2.46.84-3.98 0-1.3867-.26-2.5467-.78-3.48s-1.1867-1.7067-2-2.32c-.8133-.6133-1.7067-1.1067-2.68-1.48-.9733-.3733-1.9133-.7067-2.82-1-.8-.24-1.5333-.48-2.2-.72-.6667-.24-1.2333-.52-1.7-.84-.4667-.32-.8333-.7067-1.1-1.16-.2667-.4533-.4-1-.4-1.64 0-.6933.1533-1.2867.46-1.78.3067-.4933.7-.8933 1.18-1.2s1.0133-.5333 1.6-.68c.5867-.1467 1.1733-.22 1.76-.22.9867 0 1.9667.2333 2.94.7.9733.4667 1.7267 1.0467 2.26 1.74l3.28-3.6c-1.0933-1.0133-2.38-1.7733-3.86-2.28-1.48-.5067-2.94-.76-4.38-.76-1.28 0-2.54.1667-3.78.5-1.24.3333-2.3467.84-3.32 1.52s-1.76 1.54-2.36 2.58c-.6 1.04-.9 2.28-.9 3.72 0 1.3333.2133 2.4467.64 3.34s.98 1.6467 1.66 2.26c.68.6133 1.4467 1.1067 2.3 1.48.8533.3733 1.7067.6933 2.56.96l2.52.84c.8.2667 1.4933.58 2.08.94s1.0533.7867 1.4 1.28c.3467.4933.52 1.1133.52 1.86 0 .7733-.1533 1.42-.46 1.94a4.1436 4.1436 0 0 1-1.2 1.3c-.4933.3467-1.0467.5933-1.66.74-.6133.1467-1.2133.22-1.8.22-1.12 0-2.26-.28-3.42-.84-1.16-.56-2.0867-1.32-2.78-2.28l-3.6 3.36c1.12 1.3333 2.56 2.34 4.32 3.02 1.76.68 3.56 1.02 5.4 1.02zm20.4-.72V66.44h13.24V79h5.04V50.68h-5.04v11.44H628.4V50.68h-5.04V79h5.04z"/>
    <path fill="#FFF" d="M265 89h105v32H265z"/>
  </g>
</svg>
