<svg xmlns="http://www.w3.org/2000/svg" xmlns:xlink="http://www.w3.org/1999/xlink" width="200" height="92" viewBox="0 0 200 92">
  <defs>
    <path id="sh-logo-a" d="M1600 0v500H0V282z"/>
    <path id="sh-logo-c" d="M0 91.587h199.7951V.0002H0z"/>
  </defs>
  <g fill="none" fill-rule="evenodd" transform="translate(-610 -332)">
    <mask id="sh-logo-b" fill="#fff">
      <use xlink:href="#sh-logo-a"/>
    </mask>
    <g transform="translate(610 332)">
      <path fill="#FFF" d="M.0008 29.805c2.3017 2.5247 5.3623 4.1788 9.5295 4.2673 4.487.095 9.5017-2.6623 9.5-8.0918-.0016-5.6754-4.377-7.364-8.6492-9.0394-2.7295-1.072-7.3967-2.5557-7.3967-7.341-.0016-3.6114 3.1377-6.0344 7.159-5.9393 2.3082.0541 4.6082 1.1951 6.841 3.0869l1.223-1.436c-2.7115-2.4361-5.5066-3.4919-8.1197-3.5492C5.0795 1.651.991 4.6575.991 9.6018c.0016 6.0492 5.1442 7.7016 8.3393 8.9984 3.6935 1.4983 7.6705 2.959 7.6722 7.3803.0016 3.5738-3.2623 6.2869-7.6918 6.1606-3.1673-.0918-5.6263-1.1836-7.8984-3.6524m41.9287 4.8272h1.9688V2.5093H43.341v13.9263H27.5656V2.5093h-1.9689v30.8066h1.9689V18.329H43.341m80.8641-15.8644h-4.7918l-2.5541 4.8098-1.0279-4.8098-1.7983 4.8098-1.8-4.8098-1.0279 4.8098-2.5541-4.8098h-4.7918l-.0164 4 5.8459 2.4377-5.7787 2.5918 5.9279 2.0836-5.5607 2.9344 6.0066 1.5115-5.1525 3.4623 5.9197.6557-4.323 4.1115 5.7328.0017-2.9836 4.2147 4.5558 3.6213 4.554-3.6213-2.9836-4.2147 5.7312-.0017-4.3197-4.1115 5.9181-.6557-5.1525-3.4623 6.0049-1.5115-5.559-2.9344 5.9279-2.0836-5.7771-2.5918 5.8426-2.4377M81.8111 30.2934l-2.436-.6196 1.8492-.4328-.0886-.477 1.2722-.0345s-.818-1.123-1.8804-1.0377l-2.3557 1.2279c-.3164-.136-2.9688-2.7705-2.9688-2.7705s2.1229-2.0984.941-3.5902c-.287-.3656-2.8919-1.8098-3.1706-1.8098-.2836 0-2.595 2.0262-2.595 2.0262.8803.6967 1.672 1.7443 1.559 2.6885-.0754.6394-.9623 1.341-.9623 1.341-.1394.4033 5.323 3.4721 5.323 3.4721l-.587.5607c-.5393.5918-.2459 1.2902-.2459 1.2902l.7787-.6066.1984.259.9377-.7377.3738 1.7984.5426-.0623.1705 1.3557c1.0213-.3442 1.0803-1.8705 1.0803-1.8705l-.6918-1.7475 2.2853 1.7852.295-.682 1.1705.3738s-.2721-1.077-.795-1.7m15.8922-21.277l-1.7213.2426 1.3968-1.6787-.5705-.5934.7639-1.1115s-1.3246-.1311-1.9689.8902l-1.141 2.8278.0099-2.1934c-.0541.0213-.5197.0016-.6016.0098l-.1312-1.3557s-1.036.4934-1.154 2.2213l1.0376 1.918-4.636 6.0427c.0081.0114.0081.013.0081.0147.7066.9967.8853 1.8164.9886 2.3066l.0295.1278.377 1.7722 4.5984-7.3607 1.305.8492c.7474-.0377 1.1-1.0328 1.1-1.0328l-1.1526-.4328-.195-1.6869 1.3475.0951.2443-.4377 1.4655.2131c-.136-1.1737-.7885-1.4901-1.4-1.6475"/>
      <path fill="#FFF" d="M84.3213 9.7592c-.1164-.0722-.154-.2262-.0836-.3541.2508-.4017.8787-1.3344 1.3541-1.4262a2.0352 2.0352 0 0 1 .3393-.0296c.4689 0 .8476.1755 1.2263.3705l.4426.2213c.1246.0689.1721.2246.1098.3558-.054.123-.2196.1787-.341.1115l-.4377-.2246a3.7036 3.7036 0 0 0-.1344-.0705.9743.9743 0 0 1 .0377.2672c0 .5393-.4278.977-.9524.977-.4377 0-.8033-.2983-.9131-.718a8.4745 8.4745 0 0 0-.3033.4394c-.0558.113-.223.1573-.3443.0803m13.6623 20.4147l-2.1262-.9114 1.4344-.1066c-.0197-.0541.1918-.6787.1852-.7607l1.628-.1704s-1.1722-1.082-2.1312-.9755l-2.4148.923-6.1016-4.8607s1.3442-.2459 2.1164-.595c0 0-.6541-.7804-.8377-1.823l-.418-1.9672c-.1066-.459-.2115-1.1738-.8804-2.1098-.105-.1836-.7508-.8525-.7508-.8525l-.8787-.7066 1.0115-.1426c1.323-.2885 1.3934-1.3475 1.3934-1.3475h-4.2557s-.018-.2689-.018-.8017h4.241c.7196 0 1.3032-.2295 1.7344-.6803.7295-.7606.8344-1.7443.8344-1.7852 0-.2427-.1902-.4246-.4213-.4246-.2328.0098-.4148.2016-.4115.4459 0 .0016-.1246.6754-.6066 1.1623-.2721.282-.654.418-1.1295.418h-4.218c.018-.1262.0246-.064.0525-.1377.1278-.4459.6295-.6213 1.141-.6262.9442 0 1.9573 0 3.2098-.0476.5787-.013.8721-.9688.8721-.9688s.2656-1.5443.2656-1.7623c0-.2246-.0918-.2689-.3541-.3623-.264-.0869-1.323-.3574-1.8935-.7197-.5688-.3557-1.4082-.7197-1.8787-.7197h-2.59c-.3951 0-1.0558.4902-1.0558.4902s-.2901-.9688-1.0065-1.2213l-1.059-.3738.423 2.5984-.6525 2.3426s-1.2443.6918-1.723.7853l-.7606-.0246.5737.595c.2099.2017.846.1968 1.4853.1345l-.1525.5164c-.0508.036-1.2033.7295-1.6524.8196l-.7902-.041.5902.6132c.2.1983.8147.1983 1.4311.136l-.3066 1.0672s-.1032.964-1.2147.964c-1.0066 0-13.5918-1.5197-13.5918-1.5197-.9-.0869-2.8935-.4164-2.8935-2.154 0-1.6263 1.5673-1.8804 3.0017-1.8804l10.264-.0066c2.7917 0 4.1524-1.4623 4.2802-4.3196.1099-2.4296 1.518-3.3984 2.3886-3.3984h4.259c1.2164-.577 2.0246-2.8803 2.0246-2.8803S86.7328.3264 85.777.61h-4.8852c-1.0443 0-2.2426 1.5-2.7557 3.2393h-.0017C77.6197 2.11 76.546.61 75.377.61h-4.8852c-.9557-.2836-1.8721-.6098-1.8721-.6098s.8082 2.3032 2.0246 2.8803h4.259c.9016 0 2.3901.9688 2.3901 3.3984 0 1.8704-.8524 2.6786-2.5836 2.6786H70.482c.141-.5213.4311-1.5082.7065-1.923L72.1 6.279h-1.2557c-.6853 0-1.9328 1.9868-2.3902 2.6786h-1.5016c.1754-.6639.6114-2.3262.954-2.8524l1.1722-.9213s-.5803.0098-1.6131.0098c-.8754 0-2.536 2.9295-3.0951 3.764-1.505 0-4.5836.5458-4.5836 3.5458 0 2.3984 2.1557 3.5656 4.3492 3.8427.0852.018 2.9246.3787 2.9246.3787l-2.364 5.3983s-1.013-.1574-1.2459-.0442c-.3278.1573-2.8033 6.3-2.8033 6.3l-1.6491.0688c-.2689.1082-.8541.723-.987.9934-.1753.3689-.1786.7296-.1786.7296l.9459-.3394.4197.3787 1.0164-.3131-.8394 1.9803.5377.5705-.1803 1.6131c.8459-.082 1.4902-1.4557 1.4902-1.4557l.082-2.0213.7278 1.8655c.1115.0099.1115.0132.4738.0476l.954 1.5901s.2886-.2459.3935-.6311c.077-.2984.0934-1.4344.0934-1.4344a904.215 904.215 0 0 0-1.3164-1.5918l1.6968 1.2442c.013-.054.282-.2836.3246-.3491l1.677.672s-.3574-1.5442-.795-1.895l-2.7902-1.105 6.5754-6.3442c1.5508-1.3508 2.941-2.5098 3.6393-2.6016.7279-.0984 6.305 3.6623 7.2984 3.8115.7606.1147 1.9705-.0295 1.9705-.0295s-.1607.9065-.0345 1.1114c.3132.6476 9.8525 4.3853 9.8525 4.3853l-1.1984.7262c-.4098.2656-.6573 1.5262-.6573 1.5262l1.5164-.8557.3491.4984 1.2361-1.0099-.1869 1.6869.5689.0754.036 2.1098c.782-.3393 1.264-1.972 1.264-1.972l-.018-1.587 1.6065 1.4672.5934-.5655 1.405.6852s-.0541-1.454-.577-1.941"/>
      <path fill="#FFF" d="M85.8887 9.4615c.2606 0 .477-.2164.477-.487 0-.2671-.2164-.4868-.477-.4868-.2607 0-.4787.2197-.4787.4869 0 .2705.218.4869.4787.4869M63.5382 45.5862c-.2754-.3655-.818-.6377-1.3295-.6377-.5935 0-1.2787.2935-1.2787 1.0131 0 .6804.5623.8787 1.3803 1.141.9312.2935 2.118.7099 2.118 2.164 0 1.5901-1.2163 2.3639-2.6376 2.3639-.9427 0-1.9148-.3656-2.487-1.0574l.9214-.877c.3574.5016 1.0131.8147 1.5836.8147.605 0 1.3098-.3033 1.3098-1.0983 0-.7722-.7574-.9918-1.6655-1.2853-.882-.282-1.8328-.7213-1.8328-2.1016 0-1.5066 1.341-2.1754 2.6508-2.1754.7262 0 1.554.2623 2.1082.795m4.6005 3.168c-.1951-.282-.6148-.4919-1.0131-.4919-.9017 0-1.3509.8262-1.3509 1.6115 0 .7836.4607 1.6098 1.3902 1.6098.3803 0 .8-.1574 1.0344-.4492l.7672.7935c-.4082.4508-1.0836.7016-1.8114.7016-1.4525 0-2.6607-.982-2.6607-2.6557 0-1.6312 1.1885-2.6558 2.6312-2.6558.7147 0 1.4623.2919 1.8508.7837m5.3434 1.2439v3.1377H73.933v-2.7607c0-.5967-.123-1.3278-.9115-1.3278-.7754 0-1.1558.6787-1.1558 1.3492v2.7393H70.638v-7.9066h1.2278v3.587h.0213c.1935-.4181.7361-.846 1.464-.846 1.2787 0 1.8098 1.0033 1.8098 2.0279"/>
      <mask id="sh-logo-d" fill="#fff">
        <use xlink:href="#sh-logo-c"/>
      </mask>
      <path fill="#FFF" d="M76.5852 51.4428h1.2279v-7.9066h-1.2279zm6.1512-3.0126c0-.6492-.3574-1.2132-1.1557-1.2132-.7246 0-1.3099.5132-1.3607 1.2132h2.5164zm1.218.8983H80.22c.0508.7115.6869 1.236 1.4016 1.236.6132 0 1.023-.2524 1.2984-.649l.8197.6688c-.482.6688-1.1754 1.0049-2.1082 1.0049-1.5131 0-2.6377-.9951-2.6377-2.6262 0-1.6197 1.113-2.687 2.5983-2.687 1.3705 0 2.3722.9099 2.3722 2.7197 0 .1148 0 .2197-.0099.3328zm3.8905-1.5675c-.2147-.2935-.6246-.5443-1.0738-.5443-.3901 0-.7885.1476-.7885.5443 0 .3869.3787.4918 1.0656.659.7246.177 1.5836.5115 1.5836 1.495 0 1.2247-.9705 1.6739-2.0459 1.6739-.7557 0-1.5443-.2935-2.0148-.8263l.8082-.7737c.2656.3557.7246.6278 1.259.6278.3558 0 .787-.1475.787-.5967 0-.418-.3771-.5443-1.1246-.723-.728-.177-1.4541-.4786-1.4541-1.4213 0-1.118.9836-1.6 1.954-1.6.7066 0 1.4427.2509 1.841.764m.513-.6171h1.3295l1.0229 3.5967h.0197l1.0541-3.5967h1.3099l1.0639 3.5967h.0213l1.0426-3.5967h1.2787l-1.6983 5.0197h-1.2476l-1.1164-3.5148h-.018l-1.1066 3.5148h-1.2475m7.2552.0005h1.2263V46.423H98.118v5.0197zm.6017-7.477c.4524 0 .8.3229.8.7524 0 .4279-.3476.7525-.8.7525-.4492 0-.7754-.3558-.7754-.7525 0-.3967.3262-.7525.7754-.7525zm3.0116 4.9352c0 .795.5213 1.5885 1.4017 1.5885.9114 0 1.4639-.7525 1.4639-1.5885 0-.8672-.564-1.6-1.4541-1.6-.8902 0-1.4115.7115-1.4115 1.6m4.0312-2.4787v4.5705c0 1.8082-.859 2.959-2.7722 2.959-.7983 0-1.8-.2934-2.4344-.8262l.7066-.9722c.4688.4607 1.1049.7099 1.718.7099 1.1852 0 1.5557-.7312 1.5557-1.7246v-.3656h-.0213c-.359.4918-.9311.7525-1.6065.7525-1.4738 0-2.4246-1.1918-2.4246-2.6148 0-1.4524.9213-2.6344 2.4049-2.6344.6852 0 1.3295.2934 1.6869.8984h.0213v-.7525m2.4211 2.9811h2.4541v-1.0655h-2.4541zm3.8371-5.3645h1.2885v2.9901h3.3885v-2.9901h1.2886v7.4032h-1.2886v-3.2836h-3.3885v3.2836h-1.2885m9.8905-.8995c.9721 0 1.4213-.8475 1.4213-1.6311 0-.7853-.4492-1.6115-1.4213-1.6115-.9722 0-1.423.8262-1.423 1.6115 0 .7836.4508 1.6311 1.423 1.6311m0-4.2672c1.482 0 2.6688 1.0574 2.6688 2.636 0 1.5788-1.1869 2.6771-2.6688 2.6771-1.4836 0-2.6705-1.0983-2.6705-2.677s1.1869-2.636 2.6705-2.636m3.8462 5.1673h1.2279v-7.9066h-1.2279zm5.4439-3.6818c-.2147-.2935-.623-.5443-1.072-.5443-.3903 0-.7886.1476-.7886.5443 0 .3869.3787.4918 1.064.659.7261.177 1.5852.5115 1.5852 1.495 0 1.2247-.9705 1.6739-2.046 1.6739-.7573 0-1.5442-.2935-2.0163-.8263l.8098-.7737c.2656.3557.7246.6278 1.2574.6278.3574 0 .7885-.1475.7885-.5967 0-.418-.3787-.5443-1.1246-.723-.7279-.177-1.454-.4786-1.454-1.4213 0-1.118.9819-1.6 1.954-1.6.7066 0 1.4426.2509 1.841.764m.5848.3867V46.423h.859v-1.454h1.2082v1.454h1.2278v1.0033h-1.2278v2.3311c0 .4509.1016.7755.6426.7755.164 0 .3803-.0328.523-.105l.041.982c-.2165.0836-.5427.1377-.8181.1377-1.3 0-1.5967-.8164-1.5967-1.7787v-2.3426m6.7293 1.0038c0-.6492-.359-1.2132-1.1574-1.2132-.7246 0-1.3082.5132-1.359 1.2132h2.5164zm1.2164.8983h-3.7328c.0508.7115.6853 1.236 1.4 1.236.6148 0 1.023-.2524 1.3-.649l.818.6688c-.4803.6688-1.1754 1.0049-2.1065 1.0049-1.5148 0-2.6393-.9951-2.6393-2.6262 0-1.6197 1.1147-2.687 2.5983-2.687 1.3705 0 2.3738.9099 2.3738 2.7197 0 .1148 0 .2197-.0115.3328zm1.1813 2.1143h1.2279V46.423h-1.2279v5.0197zm.6033-7.477c.4508 0 .8.3229.8.7524 0 .4279-.3492.7525-.8.7525-.4492 0-.777-.3558-.777-.7525 0-.3967.3278-.7525.777-.7525zm2.0692 2.4568h1.1656v.805h.0213c.213-.5017.7967-.9509 1.523-.9509 1.2802 0 1.8114 1.0033 1.8114 2.0279v3.1377h-1.2262v-2.782c0-.5967-.1345-1.3393-.923-1.3393-.7754 0-1.1443.6918-1.1443 1.3606v2.7607h-1.2278M63.5893 62.7113h.0115l2.423-6.1279H67.15v7.4033h-.7361v-6.4311h-.0213l-2.6196 6.4311h-.3869l-2.6197-6.4311h-.0197v6.4311h-.7377v-7.4033h1.1262m7.8451 7.4036h.6967v-4.8934h-.6967v4.8934zm.3492-6.2737c-.2443 0-.4902-.2099-.4902-.5033 0-.2918.246-.5.4902-.5.246 0 .4902.2082.4902.5 0 .2934-.2443.5033-.4902.5033zm2.7 1.3806c.0197.2607.0394.6263.0394.8361h.0213c.2655-.564.9623-.9623 1.636-.9623 1.218 0 1.8213.805 1.8213 2.018v3.0017h-.695v-2.7082c0-1.0246-.2968-1.7148-1.2984-1.7148-.7377 0-1.4541.6066-1.4541 1.9131v2.5099h-.695V60.171c0-.2623-.01-.7426-.041-1.077m5.8655 4.893h.6967v-4.8934h-.6967v4.8934zm.3475-6.2737c-.2459 0-.4901-.2099-.4901-.5033 0-.2918.2442-.5.4901-.5.246 0 .4919.2082.4919.5 0 .2934-.246.5033-.4919.5033zm4.6599 2.5413c-.205-.4082-.646-.6902-1.177-.6902-.5 0-1.0132.218-1.0132.7623 0 .4607.359.6705 1.146.8377 1.1262.2394 1.6573.6689 1.6573 1.4312 0 1.1196-.9197 1.518-1.8 1.518-.7262 0-1.4525-.2934-1.8934-.9525l.554-.418c.2443.4279.7673.7623 1.3296.7623.5934 0 1.1246-.218 1.1246-.8574 0-.513-.5017-.7213-1.4115-.941-.5623-.136-1.3705-.3868-1.3705-1.3163 0-.9935.8393-1.423 1.7082-1.423.6656 0 1.3721.3246 1.677.8787m3.8651-.1569H85.284v2.8541c0 .7328.2951.9.7148.9.195 0 .4197-.064.6033-.1574l.0311.618c-.2442.0935-.5016.146-.818.146-.5115 0-1.2279-.2295-1.2279-1.3066v-3.054h-.9934v-.5952h.9934v-1.382h.6967v1.382h1.3492m4.6218 2.0695c-.0393-.9213-.5918-1.6-1.5852-1.6-.9295 0-1.6164.7623-1.677 1.6h3.2622zm.6967.564h-3.9705c.0214.9836.7689 1.7787 1.7492 1.7787.718 0 1.2705-.4082 1.536-.8476l.5214.418c-.5623.7328-1.2672 1.0361-2.0574 1.0361-1.4213 0-2.4737-1.0983-2.4737-2.5738 0-1.4737 1.0524-2.5704 2.413-2.5704 1.5034 0 2.2935 1.0868 2.2935 2.4245 0 .0951 0 .2099-.0115.3345zm1.3766-2.634h.664c.0212.2607.0426.6263.0426.8361h.018c.2672-.564.8606-.9623 1.536-.9623.1738 0 .3164.0098.4607.0525l-.0918.6688c-.082-.0311-.3066-.0623-.4902-.0623-.7393 0-1.4032.5443-1.4032 1.8508v2.5099h-.6968V60.171c0-.2623-.0082-.7426-.0393-1.077m3.7587 4.893h.6967v-4.8934h-.6967v4.8934zm.3492-6.2737c-.246 0-.4918-.2099-.4918-.5033 0-.2918.2459-.5.4918-.5.2442 0 .4901.2082.4901.5 0 .2934-.2459.5033-.4901.5033zm5.5375 6.274c-.0197-.2607-.0393-.628-.0393-.8362h-.0213c-.2656.564-.9623.9623-1.6361.9623-1.218 0-1.8213-.8065-1.8213-2.0196v-3h.695v2.7082c0 1.0246.2968 1.7147 1.2984 1.7147.7377 0 1.4541-.6065 1.4541-1.9147v-2.5082h.6951v3.8164c0 .2606.0115.741.041 1.077m3.9547-5.0188c.5213 0 1.1558.1983 1.4722 1.0344.3295-.6689.9114-1.0344 1.6803-1.0344 1.2164 0 1.8197.8049 1.8197 2.0164v3.0032h-.6968v-2.7082c0-1.0246-.336-1.7164-1.236-1.7164-1.0033 0-1.3623.9099-1.3623 1.8197v2.605h-.6935v-2.8558c0-.9508-.2262-1.5689-1.1557-1.5689-.6672 0-1.3934.6066-1.3934 1.9132v2.5114h-.6951V60.17c0-.2607-.0115-.7426-.041-1.0754h.6656c.0213.2606.041.6262.041.8344h.0196c.277-.564.8902-.9606 1.5754-.9606m11.3538.7211h-1.1262v4.2984h-.6951v-4.2984h-1.0033v-.595h1.0033V57.755c0-1.1082.5311-1.7984 1.6262-1.7984.1738 0 .4.0213.5722.0722l-.123.6278c-.1426-.041-.295-.0737-.4803-.0737-.746 0-.9.5442-.9 1.2557v1.2557h1.1262m4.068-2.4059c.3066 0 .5197.2607.5197.5328 0 .2721-.2131.5328-.5197.5328-.3065 0-.5213-.2607-.5213-.5328 0-.2721.2148-.5328.5213-.5328m-1.9639 0c.305 0 .5213.2607.5213.5328 0 .2721-.2164.5328-.5213.5328-.3082 0-.523-.2607-.523-.5328 0-.2721.2148-.5328.523-.5328m2.423 7.2984c-.0197-.2607-.041-.6279-.041-.836h-.0197c-.2656.5639-.9623.9622-1.6377.9622-1.2164 0-1.8197-.8049-1.8197-2.0197v-3h.6951v2.7082c0 1.0246.2967 1.7148 1.3 1.7148.736 0 1.4525-.6066 1.4525-1.9131v-2.5099h.695v3.8164c0 .2623.0099.7427.0427 1.077m1.6513-4.8929h.664c.0212.2607.0425.6263.0425.8361h.018c.2673-.564.8607-.9623 1.5361-.9623.1738 0 .3164.0098.4607.0525l-.0918.6688c-.082-.0311-.3066-.0623-.4918-.0623-.7377 0-1.4017.5443-1.4017 1.8508v2.5099h-.695V60.171c0-.2623-.0099-.7426-.041-1.077m7.0568 4.224h3.877v.6689h-4.6131v-7.4033h4.4902v.6689h-3.7541v2.5524h3.5098v.659h-3.5098m5.7313-1.3699c.0213.2606.041.6262.041.836h.0213c.2655-.564.9606-.9623 1.636-.9623 1.2164 0 1.8197.805 1.8197 2.018v3.0017h-.6934v-2.7082c0-1.0246-.2968-1.7148-1.2984-1.7148-.7377 0-1.454.6066-1.454 1.9131v2.5099h-.6952V60.171c0-.2623-.0115-.7426-.041-1.077m9.5682 2.07c-.0393-.9214-.5934-1.6-1.5852-1.6-.9312 0-1.6164.7622-1.677 1.6h3.2622zm.6951.5639h-3.9688c.0213.9836.7688 1.7787 1.7491 1.7787.7164 0 1.2689-.4082 1.5345-.8476l.5213.418c-.5623.7328-1.2672 1.0361-2.0558 1.0361-1.4213 0-2.4754-1.0983-2.4754-2.5738 0-1.4737 1.0541-2.5704 2.4148-2.5704 1.5033 0 2.2918 1.0868 2.2918 2.4245 0 .0951 0 .2099-.0115.3345zm1.3782-2.634h.664c.0196.2607.041.6263.041.8361h.0196c.2656-.564.8607-.9623 1.536-.9623.1722 0 .3165.0098.459.0525l-.09.6688c-.082-.0311-.3083-.0623-.4919-.0623-.7377 0-1.4016.5443-1.4016 1.8508v2.5099h-.6967V60.171c0-.2623-.0082-.7426-.0394-1.077m5.7985 4.2865c1.0738 0 1.841-.7738 1.841-1.9033 0-1.0246-.7672-1.9131-1.841-1.9131-1.1573 0-1.8098.8885-1.8098 1.9131s.6525 1.9033 1.8098 1.9033m-1.9459 1.5902c.3804.5016 1.1066.9 1.8328.9 1.3722 0 1.8722-.8689 1.8722-1.9246v-.9213h-.0197c-.3689.6065-1.1164.9622-1.8115.9622-1.4934 0-2.477-1.0557-2.477-2.4885 0-1.3918.9836-2.5295 2.477-2.5295.695 0 1.4312.3443 1.8115.9705h.0197v-.8459h.695v4.8525c0 1.0655-.4803 2.5508-2.5983 2.5508-.8803 0-1.7377-.377-2.3017-.9836m6.6261-1.5263h.695v-4.8934h-.695v4.8934zm.3475-6.2737c-.2459 0-.4918-.2099-.4918-.5033 0-.2918.246-.5.4918-.5.2443 0 .4918.2082.4918.5 0 .2934-.2475.5033-.4918.5033zm5.7405 3.4506c-.0393-.9213-.5918-1.6-1.5852-1.6-.9295 0-1.6148.7623-1.677 1.6h3.2622zm.6968.564h-3.9689c.0213.9836.7672 1.7787 1.7475 1.7787.718 0 1.2705-.4082 1.5361-.8476l.5213.418c-.5623.7328-1.2688 1.0361-2.0574 1.0361-1.4213 0-2.4737-1.0983-2.4737-2.5738 0-1.4737 1.0524-2.5704 2.413-2.5704 1.5034 0 2.2935 1.0868 2.2935 2.4245 0 .0951 0 .2099-.0114.3345zm1.4598-2.634l1.1557 3.9738h.0213l1.2886-3.9738h.6754l1.3098 3.9738h.0213l1.1459-3.9738h.7361l-1.5148 4.8935h-.7573l-1.2787-3.964h-.0213l-1.2574 3.964h-.7558l-1.5147-4.8935m11.8098 2.0701c-.041-.9214-.5934-1.6-1.5869-1.6-.9295 0-1.6147.7622-1.677 1.6h3.264zm.6951.5639h-3.9688c.0213.9836.7672 1.7787 1.7491 1.7787.7164 0 1.2689-.4082 1.5345-.8476l.5213.418c-.5623.7328-1.2672 1.0361-2.0558 1.0361-1.423 0-2.4754-1.0983-2.4754-2.5738 0-1.4737 1.0525-2.5704 2.4131-2.5704 1.505 0 2.2935 1.0868 2.2935 2.4245 0 .0951 0 .2099-.0115.3345zm2.0425-2.634c.0196.2607.0393.6263.0393.8361h.0213c.2656-.564.9623-.9623 1.636-.9623 1.2181 0 1.8214.805 1.8214 2.018v3.0017h-.695v-2.7082c0-1.0246-.2968-1.7148-1.2984-1.7148-.7377 0-1.4541.6066-1.4541 1.9131v2.5099h-.6951V60.171c0-.2623-.0115-.7426-.041-1.077m8.1162 4.412c1.0738 0 1.841-.8475 1.841-1.9655 0-1.1197-.7672-1.977-1.841-1.977-1.1557 0-1.8098.8885-1.8098 1.977 0 1.0869.654 1.9656 1.8098 1.9656m-.0721.6065c-1.4934 0-2.4754-1.1295-2.4754-2.5721 0-1.4443.982-2.5721 2.4754-2.5721.6852 0 1.4033.3344 1.8115.972h.0196v-3.859h.6968v7.905h-.6968v-.8246h-.0196c-.4082.6164-1.1263.9508-1.8115.9508m7.9584-2.9487c-.0394-.9213-.5918-1.6-1.5853-1.6-.9311 0-1.6164.7623-1.677 1.6h3.2623zm.6967.564h-3.9689c.0197.9836.7672 1.7787 1.7476 1.7787.718 0 1.2705-.4082 1.536-.8476l.5213.418c-.5639.7328-1.2688 1.0361-2.0573 1.0361-1.4213 0-2.4738-1.0983-2.4738-2.5738 0-1.4737 1.0525-2.5704 2.4131-2.5704 1.5033 0 2.2918 1.0868 2.2918 2.4245 0 .0951 0 .2099-.0098.3345zm1.3492 3.7226h-.582l.6836-2.4574h.7279M60.7462 75.8628h3.3771v.6705h-4.1131v-7.4049h.736m7.393 4.9566c-1.1344 0-2.4558.1263-2.4558 1.0575 0 .7.582.9295 1.1246.9295.9836 0 1.5361-.7525 1.5361-1.6197v-.3672h-.205zm.2049-.7114c0-.8459-.4492-1.264-1.2787-1.264-.5623 0-1.0836.2296-1.4213.5755l-.3902-.4721c.3902-.3968 1.064-.7 1.8836-.7 1.0328 0 1.8607.5852 1.8607 1.7786v2.1427c0 .377.0311.8262.082 1.0983h-.6246c-.0394-.241-.0722-.5344-.0722-.795h-.018c-.441.6475-.9738.9196-1.741.9196-.7262 0-1.6574-.3967-1.6574-1.4836 0-1.5066 1.628-1.6426 3.3771-1.6426v-.1574zm2.9666-1.7347c.0196.2606.0393.6278.0393.836h.0213c.2656-.564.9623-.9623 1.636-.9623 1.2181 0 1.8214.805 1.8214 2.018v3.0017h-.695v-2.7082c0-1.0246-.2968-1.7148-1.2985-1.7148-.7377 0-1.454.6066-1.454 1.9132v2.5098h-.6951v-3.8164c0-.2623-.0115-.7426-.041-1.077m8.1162 4.412c1.0738 0 1.841-.8458 1.841-1.9655 0-1.118-.7672-1.9754-1.841-1.9754-1.1557 0-1.8098.8869-1.8098 1.9754 0 1.0869.654 1.9656 1.8098 1.9656m-.0721.6065c-1.4935 0-2.4754-1.1278-2.4754-2.572 0-1.4427.982-2.5722 2.4754-2.5722.6869 0 1.4033.3344 1.8131.9721h.018v-3.859h.6967v7.9066h-.6967v-.8263h-.018c-.4098.6164-1.1262.9508-1.8131.9508m4.4139-5.0186l1.1558 3.9737h.0213l1.2885-3.9737h.6754l1.3098 3.9737h.0197l1.1459-3.9737h.7361l-1.5148 4.8934h-.7557l-1.2803-3.9639h-.0197l-1.2574 3.9639h-.7574l-1.5147-4.8934m8.2428 4.8941h.6967v-4.8935h-.6967v4.8935zm.3491-6.2755c-.2459 0-.4918-.2082-.4918-.5016 0-.2934.246-.5016.4918-.5016.2443 0 .4918.2082.4918.5016 0 .2934-.2475.5016-.4918.5016zm2.0348 1.3814h.664c.0196.2606.041.6278.041.836h.0196c.2656-.564.8606-.9623 1.536-.9623.1722 0 .3164.0099.459.0525l-.0901.6688c-.082-.0311-.3082-.0623-.4918-.0623-.7377 0-1.4016.5443-1.4016 1.8509v2.5098h-.6968v-3.8164c0-.2623-.0082-.7426-.0393-1.077m6.3588.5955H97.992v2.8541c0 .7328.295.9.7147.9.1951 0 .4197-.0623.6033-.1574l.0311.618c-.2442.0935-.5016.146-.818.146-.5115 0-1.2279-.2295-1.2279-1.3066v-3.054h-.9934v-.5952h.9934v-1.382h.6968v1.382h1.3491m3.8776 1.1602c-.205-.4082-.646-.6902-1.177-.6902-.5 0-1.0132.2197-1.0132.7623 0 .4607.359.6705 1.146.8377 1.1262.241 1.6573.6689 1.6573 1.4328 0 1.118-.9197 1.5164-1.8016 1.5164-.7246 0-1.4509-.2934-1.8918-.9524l.5524-.418c.246.4278.7689.7622 1.3312.7622.5918 0 1.1246-.218 1.1246-.8573 0-.5115-.5017-.7214-1.4115-.941-.564-.1345-1.3705-.387-1.3705-1.3164 0-.9935.8393-1.423 1.7082-1.423.664 0 1.3705.3246 1.677.8787m4.8895.3666c-.2262-.377-.7065-.6492-1.2278-.6492-1.1164 0-1.8312.8574-1.8312 1.977 0 1.1082.705 1.9656 1.8197 1.9656.6033 0 1.0246-.2606 1.3-.6377l.5213.3967c-.4098.5131-.9918.8476-1.8213.8476-1.5426 0-2.5557-1.0984-2.5557-2.5722 0-1.4737 1.013-2.572 2.5557-2.572.6459 0 1.3721.2819 1.7803.8458m1.846.0838c.2558-.564.9312-.9295 1.605-.9295 1.2197 0 1.823.8032 1.823 2.018v3.0016h-.6968v-2.7098c0-1.0246-.2967-1.7147-1.2983-1.7147-.736 0-1.4541.6065-1.4541 1.913v2.5115h-.6951V68.627h.695v3.8164m7.941 1.6418c-1.1344 0-2.4557.1262-2.4557 1.0574 0 .7.582.9295 1.1246.9295.9836 0 1.536-.7525 1.536-1.6197v-.3672h-.2048zm.205-.7115c0-.8459-.4492-1.264-1.2787-1.264-.5623 0-1.0836.2296-1.4213.5755l-.3902-.4721c.3902-.3968 1.0656-.7 1.8836-.7 1.0328 0 1.8607.5852 1.8607 1.7786v2.1427c0 .377.0311.8262.082 1.0983h-.6246c-.0394-.241-.0705-.5344-.0705-.795h-.0197c-.441.6475-.9721.9196-1.741.9196-.7246 0-1.6574-.3967-1.6574-1.4836 0-1.5066 1.6279-1.6426 3.377-1.6426v-.1574zm4.4026-1.1392h-1.1262v4.2984h-.6951v-4.2984h-1.0033v-.595h1.0033V70.3c0-1.1082.5328-1.7984 1.6279-1.7984.172 0 .3983.0214.5705.0738l-.1214.6262c-.1442-.041-.2967-.0737-.482-.0737-.7458 0-.9.5442-.9 1.2557v1.2557h1.1263m3.6341.5951h-1.3508v2.8541c0 .7328.2967.9.7164.9.1934 0 .4197-.0623.6033-.1574l.0311.618c-.2443.0935-.5016.146-.818.146-.5131 0-1.2279-.2295-1.2279-1.3066v-3.054h-.9934v-.5952h.9934v-1.382h.695v1.382h1.3509m1.2326 6.3568h-.5819l.6836-2.4574h.7278m4.2646-1.7667v-4.6443h.736v4.5607c0 1.1918.5017 2.3623 1.9739 2.3623 1.4737 0 1.9737-1.1705 1.9737-2.3623v-4.5607h.7377v4.6443c0 1.2328-.541 2.9491-2.7114 2.9491-2.1689 0-2.7099-1.7163-2.7099-2.9491m9.4199-2.2589c.5213 0 1.1557.1984 1.472 1.0344.3296-.6688.9116-1.0344 1.6788-1.0344 1.218 0 1.8213.805 1.8213 2.018v3.0017h-.6967v-2.7082c0-1.0246-.3377-1.7148-1.236-1.7148-1.005 0-1.3624.9082-1.3624 1.818v2.605h-.695V73.677c0-.9508-.2247-1.5672-1.1558-1.5672-.6656 0-1.3918.605-1.3918 1.9132v2.5098h-.695v-3.818c0-.2607-.0116-.7427-.041-1.0755h.6639c.0213.2607.041.6263.041.8361h.0213c.2754-.5656.8901-.9623 1.5754-.9623m6.7047.1258l1.1541 3.9737h.0213l1.2902-3.9737h.6738l1.3098 3.9737h.0213l1.1459-3.9737h.7361l-1.5148 4.8934h-.7574l-1.277-3.9639h-.0213l-1.2574 3.9639h-.7574l-1.5147-4.8934m11.8098 2.07c-.041-.9214-.5934-1.6-1.5852-1.6-.9312 0-1.6164.7639-1.677 1.6h3.2622zm.695.5655h-3.9688c.0214.982.7673 1.777 1.7492 1.777.7164 0 1.2689-.4081 1.5344-.8458l.5214.4164c-.5623.7328-1.2673 1.036-2.0558 1.036-1.4213 0-2.4754-1.0983-2.4754-2.5737 0-1.4722 1.0541-2.5705 2.4148-2.5705 1.5032 0 2.2918 1.0869 2.2918 2.4246 0 .095 0 .2098-.0115.336zm1.4512 2.2586h.6968v-7.9066h-.6968zm4.7538-4.2986h-1.3508v2.8541c0 .7328.2967.9.7164.9.1934 0 .4197-.0623.6033-.1574l.0311.618c-.2443.0935-.5016.146-.818.146-.5131 0-1.2279-.2295-1.2279-1.3066v-3.054h-.9934v-.5952h.9934v-1.382h.695v1.382h1.351m1.2327 6.3568h-.582l.6836-2.4574h.7279m9.4403-.1041h.0213V69.128h.7361v7.405h-.9213l-4.2131-6.3689h-.0213v6.3689h-.7377v-7.405h.9213m9.6098 4.957c-1.1344 0-2.454.1263-2.454 1.0575 0 .7.5819.9295 1.1245.9295.982 0 1.5344-.7525 1.5344-1.6197v-.3672h-.2049zm.205-.7114c0-.8459-.4492-1.264-1.2771-1.264-.564 0-1.0853.2296-1.4213.5755l-.3902-.4721c.3902-.3968 1.064-.7 1.882-.7 1.0344 0 1.8606.5852 1.8606 1.7786v2.1427c0 .377.0328.8262.082 1.0983h-.623c-.041-.241-.072-.5344-.072-.795h-.0198c-.441.6475-.972.9196-1.7393.9196-.7262 0-1.659-.3967-1.659-1.4836 0-1.5066 1.6295-1.6426 3.377-1.6426v-.1574zm4.5786-1.1392h-1.3508v2.8541c0 .7328.295.9.7148.9.195 0 .4196-.0623.6032-.1574l.0328.618c-.2459.0935-.5016.146-.818.146-.5131 0-1.2279-.2295-1.2279-1.3066v-3.054h-.9934v-.5952h.9934v-1.382h.6951v1.382h1.3508m4.5723 4.8935c-.0197-.2623-.0393-.6279-.0393-.836h-.0213c-.2656.5639-.9623.9606-1.6377.9606-1.2164 0-1.8197-.805-1.8197-2.018v-3h.6934v2.7081c0 1.0246.2984 1.7148 1.3 1.7148.7377 0 1.4541-.6082 1.4541-1.9148v-2.5082h.6951v3.8148c0 .2623.0115.7426.041 1.0787m1.6525-4.894h.6639c.0213.2607.0426.628.0426.8361h.0197c.2656-.564.8606-.9623 1.5344-.9623.1738 0 .318.0099.4607.0525l-.0918.6688c-.082-.0311-.3066-.0623-.4902-.0623-.7393 0-1.4033.5443-1.4033 1.8509v2.5098h-.6967v-3.8164c0-.2623-.0082-.7426-.0393-1.077M63.4469 89.0777c-.0213-.2607-.041-.6279-.041-.836h-.0197c-.2672.5639-.9623.9622-1.6377.9622-1.2164 0-1.8196-.8065-1.8196-2.0196v-3h.6934v2.7082c0 1.0245.2967 1.7147 1.3 1.7147.7377 0 1.4525-.6065 1.4525-1.9147v-2.5082h.6967v3.8164c0 .2606.0098.741.0393 1.077m2.3187-4.894c.0213.2622.041.6278.041.836h.0197c.2672-.564.9623-.9607 1.6377-.9607 1.2164 0 1.8196.8033 1.8196 2.0164v3.0016h-.6934v-2.708c0-1.0246-.2967-1.7148-1.3-1.7148-.7377 0-1.4525.6066-1.4525 1.9131v2.5098h-.6967v-3.8163c0-.2607-.0098-.7427-.0393-1.077m8.1146 4.4129c1.0737 0 1.8426-.8476 1.8426-1.9656 0-1.1197-.7689-1.977-1.8426-1.977-1.1558 0-1.8099.8885-1.8099 1.977 0 1.0869.6541 1.9656 1.8099 1.9656m-.0705.6065c-1.4935 0-2.477-1.1295-2.477-2.5721 0-1.4443.9835-2.5721 2.477-2.5721.6852 0 1.4016.3344 1.8114.972h.0197v-3.859h.6951v7.905h-.695v-.8246h-.0198c-.4098.6164-1.1262.9508-1.8114.9508m7.7213-.7954h1.464c2.1786 0 3.231-1.505 3.231-3.0328 0-1.5262-1.0524-3.0328-3.231-3.0328h-1.464v6.0656zm-.736-6.7328h2.4032c1.8115 0 3.8066 1.2328 3.8066 3.7 0 2.4689-1.9951 3.7033-3.8066 3.7033h-2.4033V81.675zm7.6329 7.4023h.695v-4.8934h-.695v4.8934zm.3475-6.2738c-.2459 0-.4918-.2098-.4918-.5032 0-.2918.246-.5017.4918-.5017.2443 0 .4918.2099.4918.5017 0 .2934-.2475.5032-.4918.5032zm4.2885 5.6676c1.0738 0 1.841-.7738 1.841-1.9033 0-1.0246-.7672-1.9131-1.841-1.9131-1.1557 0-1.8098.8885-1.8098 1.9131s.6541 1.9033 1.8098 1.9033m-1.9442 1.5901c.3787.5017 1.1049.8984 1.8328.8984 1.3705 0 1.8705-.8672 1.8705-1.923v-.9213h-.018c-.3706.6066-1.1165.9623-1.8132.9623-1.4934 0-2.4754-1.0557-2.4754-2.4885 0-1.3918.982-2.5295 2.4754-2.5295.6967 0 1.4328.3443 1.8131.9705h.018v-.8459h.6968v4.8525c0 1.0655-.482 2.5508-2.5984 2.5508-.8803 0-1.7393-.377-2.3016-.9836m6.6246-1.5266h.6967v-4.8934h-.6967v4.8934zm.3491-6.2738c-.2475 0-.4918-.2098-.4918-.5032 0-.2918.2443-.5017.4918-.5017.2443 0 .4902.2099.4902.5017 0 .2934-.2459.5032-.4902.5032zm4.3973 1.9766h-1.3492v2.8541c0 .7328.2967.9.7147.9.1951 0 .4197-.064.6033-.1574l.0312.6164c-.2443.0951-.5017.1476-.818.1476-.5116 0-1.228-.2296-1.228-1.3066V84.78h-.9917v-.5967h.9918V82.803h.6967v1.3803h1.3492m4.012 2.4474c-1.1345 0-2.4542.1245-2.4542 1.0557 0 .7016.582.9311 1.1246.9311.982 0 1.5344-.754 1.5344-1.6213v-.3655h-.2049zm.2048-.7115c0-.8476-.4491-1.2656-1.2786-1.2656-.5623 0-1.0837.2312-1.4214.5754l-.3901-.4705c.3901-.3967 1.0656-.7 1.8836-.7 1.0344 0 1.8606.5853 1.8606 1.777v2.1443c0 .3754.0312.8263.082 1.0984h-.6246c-.0393-.241-.0705-.5344-.0705-.795h-.0196c-.441.6475-.9722.9196-1.741.9196-.7246 0-1.6574-.3967-1.6574-1.4853 0-1.5049 1.6279-1.641 3.377-1.641v-.1573zm2.3499 3.158h.6967v-7.9049h-.6967zm2.4328 0h.695v-4.8934h-.695v4.8934zm.3491-6.2738c-.2459 0-.4918-.2098-.4918-.5032 0-.2918.246-.5017.4918-.5017.2443 0 .4902.2099.4902.5017 0 .2934-.2459.5032-.4902.5032zm4.6596 2.5409c-.2066-.4082-.646-.6902-1.1771-.6902-.5016 0-1.0131.2197-1.0131.7623 0 .4623.3574.6705 1.1443.8377 1.1278.241 1.6573.6689 1.6573 1.4328 0 1.118-.918 1.5164-1.8 1.5164-.7262 0-1.4508-.2935-1.8918-.9525l.5525-.4164c.2442.4279.7672.7623 1.3311.7623.5918 0 1.1246-.2197 1.1246-.859 0-.5115-.5016-.7197-1.4115-.9393-.5639-.1361-1.372-.387-1.372-1.318 0-.9935.8393-1.4214 1.7098-1.4214.6639 0 1.3704.323 1.6754.877m1.4257 4.1412h.695v-4.8934h-.695v4.8934zm.3492-6.2738c-.2476 0-.4918-.2098-.4918-.5032 0-.2918.2442-.5017.4918-.5017.2442 0 .4901.2099.4901.5017 0 .2934-.2459.5032-.4901.5032zm5.7401 3.451c-.0393-.9213-.5918-1.6-1.5852-1.6-.9312 0-1.6164.7623-1.677 1.6h3.2622zm.6968.564h-3.9705c.0213.9836.7688 1.7786 1.7492 1.7786.718 0 1.2704-.4081 1.536-.8475l.5213.418c-.564.7328-1.2688 1.0361-2.0573 1.0361-1.4214 0-2.4738-1.0984-2.4738-2.5738 0-1.4737 1.0524-2.5705 2.4131-2.5705 1.5033 0 2.2918 1.087 2.2918 2.4246 0 .0951 0 .2099-.0098.3345zm1.3765-2.6348h.664c.0213.2623.0426.6279.0426.836h.018c.2672-.5639.8607-.9606 1.536-.9606.1738 0 .3165.0099.4607.0508l-.0918.6705c-.082-.0328-.3065-.0623-.4918-.0623-.7377 0-1.4016.5427-1.4016 1.8492v2.5098h-.6967v-3.8163c0-.2607-.0082-.7427-.0394-1.077m7.2538 4.894c-.0213-.2607-.041-.6279-.041-.836h-.0197c-.2655.5639-.9623.9622-1.6377.9622-1.2164 0-1.8196-.8065-1.8196-2.0196v-3h.6934v2.7082c0 1.0245.2984 1.7147 1.3 1.7147.7377 0 1.4525-.6065 1.4525-1.9147v-2.5082h.6967v3.8164c0 .2606.0098.741.0393 1.077m2.3186-4.894c.0213.2622.041.6278.041.836h.0212c.2656-.564.9607-.9607 1.6361-.9607 1.218 0 1.8197.8033 1.8197 2.0164v3.0016h-.6935v-2.708c0-1.0246-.2967-1.7148-1.2983-1.7148-.7377 0-1.4541.6066-1.4541 1.9131v2.5098h-.6967v-3.8163c0-.2607-.0099-.7427-.0394-1.077m8.097 4.2873c1.0738 0 1.841-.7738 1.841-1.9033 0-1.0246-.7672-1.9131-1.841-1.9131-1.1557 0-1.8098.8885-1.8098 1.9131s.6541 1.9033 1.8099 1.9033m-1.9443 1.5901c.3787.5017 1.105.8984 1.8328.8984 1.3705 0 1.8705-.8672 1.8705-1.923v-.9213h-.018c-.3705.6066-1.1164.9623-1.8132.9623-1.4934 0-2.4754-1.0557-2.4754-2.4885 0-1.3918.982-2.5295 2.4754-2.5295.6968 0 1.4328.3443 1.8131.9705h.018v-.8459h.6968v4.8525c0 1.0655-.482 2.5508-2.6 2.5508-.8787 0-1.7377-.377-2.3-.9836" mask="url(#sh-logo-d)"/>
    </g>
  </g>
</svg>
